<svg width="2516" height="407" viewBox="0 0 2516 407" fill="none" xmlns="http://www.w3.org/2000/svg">
<path d="M656.832 190.816C671.424 183.136 680.64 169.312 680.64 151.392C680.64 123.488 657.6 104.8 612.8 104.8H525.248V284H617.92C665.024 284 689.6 266.08 689.6 235.104C689.6 212.576 676.8 197.216 656.832 190.816ZM607.68 136.032C627.904 136.032 638.912 142.944 638.912 157.024C638.912 171.104 627.904 178.272 607.68 178.272H566.464V136.032H607.68ZM614.848 252.768H566.464V208.48H614.848C636.352 208.48 647.872 215.648 647.872 230.752C647.872 246.112 636.352 252.768 614.848 252.768Z" fill="black"/>
<path d="M783.718 286.048C827.494 286.048 859.238 256.608 859.238 215.136C859.238 173.664 827.494 144.224 783.718 144.224C739.942 144.224 707.942 173.664 707.942 215.136C707.942 256.608 739.942 286.048 783.718 286.048ZM783.718 253.28C763.75 253.28 748.39 238.944 748.39 215.136C748.39 191.328 763.75 176.992 783.718 176.992C803.686 176.992 818.79 191.328 818.79 215.136C818.79 238.944 803.686 253.28 783.718 253.28Z" fill="black"/>
<path d="M984.748 146.272V214.368C984.748 239.712 971.436 251.488 953.004 251.488C935.34 251.488 925.1 241.248 925.1 218.208V146.272H885.164V224.096C885.164 266.592 909.484 286.048 944.044 286.048C960.94 286.048 976.3 279.648 986.796 267.616V284H1024.68V146.272H984.748Z" fill="black"/>
<path d="M1145.39 144.224C1126.71 144.224 1110.58 150.624 1099.83 162.4V146.272H1061.68V284H1101.62V215.904C1101.62 190.56 1115.44 178.784 1134.64 178.784C1152.31 178.784 1162.55 189.024 1162.55 211.296V284H1202.48V205.152C1202.48 163.168 1177.91 144.224 1145.39 144.224Z" fill="black"/>
<path d="M1316.76 249.184C1312.41 252.512 1306.52 254.304 1300.63 254.304C1289.88 254.304 1283.48 247.904 1283.48 236.128V180.064H1317.79V149.344H1283.48V115.808H1243.55V149.344H1222.3V180.064H1243.55V236.64C1243.55 269.408 1262.49 286.048 1295 286.048C1307.29 286.048 1319.32 283.232 1327.51 277.344L1316.76 249.184Z" fill="black"/>
<path d="M1445.74 146.272L1406.82 239.712L1368.17 146.272H1326.95L1386.6 285.024L1386.09 286.304C1380.71 298.592 1374.57 303.456 1363.56 303.456C1355.62 303.456 1347.18 300.128 1341.03 294.752L1326.44 323.168C1335.4 331.104 1350.76 335.712 1364.84 335.712C1389.67 335.712 1408.62 325.728 1421.93 292.448L1484.14 146.272H1445.74Z" fill="black"/>
<path d="M1698.63 104.8V175.456H1617.22V104.8H1575.75V284H1617.22V210.528H1698.63V284H1740.1V104.8H1698.63Z" fill="black"/>
<path d="M1878.5 146.272V214.368C1878.5 239.712 1865.19 251.488 1846.75 251.488C1829.09 251.488 1818.85 241.248 1818.85 218.208V146.272H1778.91V224.096C1778.91 266.592 1803.23 286.048 1837.79 286.048C1854.69 286.048 1870.05 279.648 1880.55 267.616V284H1918.43V146.272H1878.5Z" fill="black"/>
<path d="M2039.14 144.224C2020.46 144.224 2004.33 150.624 1993.58 162.4V146.272H1955.43V284H1995.37V215.904C1995.37 190.56 2009.19 178.784 2028.39 178.784C2046.06 178.784 2056.3 189.024 2056.3 211.296V284H2096.23V205.152C2096.23 163.168 2071.66 144.224 2039.14 144.224Z" fill="black"/>
<path d="M2210.51 249.184C2206.16 252.512 2200.27 254.304 2194.38 254.304C2183.63 254.304 2177.23 247.904 2177.23 236.128V180.064H2211.54V149.344H2177.23V115.808H2137.3V149.344H2116.05V180.064H2137.3V236.64C2137.3 269.408 2156.24 286.048 2188.75 286.048C2201.04 286.048 2213.07 283.232 2221.26 277.344L2210.51 249.184Z" fill="black"/>
<path d="M2374.34 215.648C2374.34 171.36 2343.11 144.224 2302.66 144.224C2260.68 144.224 2229.19 173.92 2229.19 215.136C2229.19 256.096 2260.17 286.048 2307.78 286.048C2332.62 286.048 2351.82 278.368 2364.62 263.776L2343.37 240.736C2333.9 249.696 2323.4 254.048 2308.81 254.048C2287.82 254.048 2273.22 243.552 2269.38 226.4H2373.58C2373.83 223.072 2374.34 218.72 2374.34 215.648ZM2302.92 174.432C2320.84 174.432 2333.9 185.696 2336.71 203.104H2268.87C2271.69 185.44 2284.74 174.432 2302.92 174.432Z" fill="black"/>
<path d="M2439.08 164.448V146.272H2400.93V284H2440.87V218.976C2440.87 192.608 2455.46 180.576 2477.48 180.576C2480.55 180.576 2483.11 180.832 2486.44 181.088V144.224C2465.19 144.224 2448.8 151.136 2439.08 164.448Z" fill="black"/>
<path d="M1848.81 359.76C1844.01 359.76 1839.78 361.552 1836.97 365.2V346.512H1830.82V394H1836.71V388.624C1839.46 392.464 1843.82 394.384 1848.81 394.384C1858.73 394.384 1865.96 387.408 1865.96 377.04C1865.96 366.672 1858.73 359.76 1848.81 359.76ZM1848.3 389.008C1841.83 389.008 1836.9 384.272 1836.9 377.04C1836.9 369.808 1841.83 365.136 1848.3 365.136C1854.82 365.136 1859.75 369.808 1859.75 377.04C1859.75 384.272 1854.82 389.008 1848.3 389.008Z" fill="black"/>
<path d="M1897.51 360.08L1885.8 387.216L1873.96 360.08H1867.56L1882.54 393.936L1881.45 396.304C1879.78 400.208 1877.93 401.552 1874.98 401.552C1872.68 401.552 1870.57 400.656 1868.9 399.056L1866.28 403.664C1868.39 405.712 1871.72 406.8 1874.98 406.8C1880.17 406.8 1884.07 404.56 1887.08 397.392L1903.53 360.08H1897.51Z" fill="black"/>
<path d="M1941.91 351.906V360.188H1954.53V366.594H1941.91V381.125C1941.91 382.354 1942.04 383.385 1942.31 384.219C1942.6 385.031 1943.01 385.688 1943.53 386.188C1944.05 386.667 1944.68 387.01 1945.41 387.219C1946.16 387.427 1946.99 387.531 1947.91 387.531C1948.57 387.531 1949.25 387.5 1949.94 387.438C1950.65 387.375 1951.31 387.302 1951.94 387.219C1952.58 387.115 1953.18 387.01 1953.72 386.906C1954.28 386.802 1954.76 386.698 1955.16 386.594L1956 392.562C1955.4 392.917 1954.69 393.229 1953.88 393.5C1953.06 393.75 1952.2 393.958 1951.28 394.125C1950.36 394.292 1949.41 394.417 1948.41 394.5C1947.43 394.604 1946.46 394.656 1945.5 394.656C1943.65 394.656 1941.96 394.417 1940.44 393.938C1938.94 393.438 1937.65 392.677 1936.56 391.656C1935.5 390.615 1934.68 389.302 1934.09 387.719C1933.51 386.115 1933.22 384.198 1933.22 381.969V366.594H1925.5V360.188H1933.22V351.906H1941.91Z" fill="black"/>
<path d="M1980.81 394.625C1978.21 394.625 1975.84 394.198 1973.72 393.344C1971.59 392.49 1969.77 391.333 1968.25 389.875C1966.73 388.396 1965.55 386.667 1964.72 384.688C1963.91 382.688 1963.5 380.552 1963.5 378.281V377.031C1963.5 374.448 1963.91 372.094 1964.72 369.969C1965.53 367.823 1966.67 365.979 1968.12 364.438C1969.58 362.896 1971.31 361.698 1973.31 360.844C1975.31 359.99 1977.49 359.562 1979.84 359.562C1982.28 359.562 1984.45 359.969 1986.34 360.781C1988.26 361.573 1989.88 362.698 1991.19 364.156C1992.52 365.615 1993.53 367.375 1994.22 369.438C1994.91 371.479 1995.25 373.74 1995.25 376.219V379.906H1972.31C1972.48 381.052 1972.81 382.104 1973.31 383.062C1973.83 384 1974.49 384.812 1975.28 385.5C1976.07 386.188 1976.98 386.719 1978 387.094C1979.02 387.469 1980.14 387.656 1981.34 387.656C1982.2 387.656 1983.04 387.573 1983.88 387.406C1984.73 387.24 1985.54 387 1986.31 386.688C1987.08 386.354 1987.8 385.948 1988.47 385.469C1989.14 384.99 1989.72 384.427 1990.22 383.781L1994.56 388.469C1994.02 389.24 1993.31 390 1992.44 390.75C1991.58 391.479 1990.56 392.135 1989.38 392.719C1988.21 393.281 1986.91 393.74 1985.47 394.094C1984.03 394.448 1982.48 394.625 1980.81 394.625ZM1979.78 366.594C1978.8 366.594 1977.91 366.771 1977.09 367.125C1976.28 367.458 1975.56 367.948 1974.94 368.594C1974.33 369.24 1973.82 370.01 1973.41 370.906C1972.99 371.802 1972.68 372.802 1972.47 373.906H1986.72V373.219C1986.68 372.302 1986.5 371.438 1986.19 370.625C1985.88 369.812 1985.43 369.115 1984.84 368.531C1984.26 367.927 1983.54 367.458 1982.69 367.125C1981.85 366.771 1980.89 366.594 1979.78 366.594Z" fill="black"/>
<path d="M2004.66 346H2023.56V386.938H2033.25V394H2004.66V386.938H2014.78V353.094H2004.66V346Z" fill="black"/>
<path d="M2043.09 346H2062V386.938H2071.69V394H2043.09V386.938H2053.22V353.094H2043.09V346Z" fill="black"/>
<path d="M2101.28 389.25C2100.14 390.938 2098.75 392.26 2097.12 393.219C2095.52 394.177 2093.76 394.656 2091.84 394.656C2090.09 394.656 2088.49 394.385 2087.03 393.844C2085.57 393.302 2084.32 392.448 2083.28 391.281C2082.24 390.094 2081.43 388.594 2080.84 386.781C2080.28 384.948 2080 382.75 2080 380.188V360.188H2088.69V380.25C2088.69 381.625 2088.78 382.781 2088.97 383.719C2089.18 384.656 2089.5 385.417 2089.94 386C2090.38 386.562 2090.95 386.969 2091.66 387.219C2092.36 387.469 2093.23 387.594 2094.25 387.594C2095.98 387.594 2097.39 387.271 2098.47 386.625C2099.55 385.958 2100.38 385.052 2100.94 383.906V360.188H2109.66V394H2101.78L2101.28 389.25Z" fill="black"/>
<path d="M2139.97 384.719C2139.97 384.198 2139.84 383.74 2139.59 383.344C2139.36 382.948 2138.94 382.583 2138.31 382.25C2137.71 381.896 2136.9 381.573 2135.88 381.281C2134.85 380.99 2133.56 380.698 2132 380.406C2130.02 380.01 2128.21 379.521 2126.56 378.938C2124.94 378.333 2123.54 377.615 2122.38 376.781C2121.21 375.927 2120.29 374.948 2119.62 373.844C2118.98 372.74 2118.66 371.469 2118.66 370.031C2118.66 368.635 2118.99 367.302 2119.66 366.031C2120.32 364.76 2121.28 363.646 2122.53 362.688C2123.78 361.729 2125.3 360.969 2127.09 360.406C2128.89 359.844 2130.91 359.562 2133.16 359.562C2135.51 359.562 2137.62 359.844 2139.5 360.406C2141.38 360.948 2142.96 361.708 2144.25 362.688C2145.56 363.646 2146.56 364.792 2147.25 366.125C2147.94 367.458 2148.28 368.906 2148.28 370.469H2139.59C2139.59 369.156 2139.06 368.062 2138 367.188C2136.94 366.292 2135.32 365.844 2133.16 365.844C2131.14 365.844 2129.6 366.208 2128.56 366.938C2127.54 367.667 2127.03 368.562 2127.03 369.625C2127.03 370.125 2127.14 370.594 2127.34 371.031C2127.55 371.448 2127.92 371.833 2128.44 372.188C2128.98 372.521 2129.71 372.833 2130.62 373.125C2131.54 373.396 2132.71 373.635 2134.12 373.844C2136.17 374.177 2138.06 374.604 2139.81 375.125C2141.56 375.646 2143.07 376.323 2144.34 377.156C2145.61 377.969 2146.6 378.969 2147.31 380.156C2148.04 381.323 2148.41 382.719 2148.41 384.344C2148.41 385.844 2148.04 387.229 2147.31 388.5C2146.6 389.75 2145.58 390.833 2144.25 391.75C2142.94 392.667 2141.34 393.385 2139.47 393.906C2137.59 394.406 2135.5 394.656 2133.19 394.656C2130.65 394.656 2128.4 394.323 2126.44 393.656C2124.5 392.99 2122.88 392.125 2121.56 391.062C2120.25 389.979 2119.25 388.76 2118.56 387.406C2117.9 386.031 2117.56 384.656 2117.56 383.281H2125.84C2125.91 384.198 2126.16 384.99 2126.59 385.656C2127.03 386.302 2127.59 386.833 2128.28 387.25C2128.97 387.646 2129.75 387.938 2130.62 388.125C2131.52 388.312 2132.44 388.406 2133.38 388.406C2135.52 388.406 2137.16 388.062 2138.28 387.375C2139.41 386.688 2139.97 385.802 2139.97 384.719Z" fill="black"/>
<path d="M2200.75 378.906H2210.09C2209.91 381.969 2209.06 384.688 2207.56 387.062C2206.08 389.438 2204.01 391.292 2201.34 392.625C2198.7 393.958 2195.51 394.625 2191.78 394.625C2188.86 394.625 2186.25 394.125 2183.94 393.125C2181.62 392.104 2179.65 390.646 2178 388.75C2176.38 386.854 2175.14 384.562 2174.28 381.875C2173.43 379.188 2173 376.177 2173 372.844V369.688C2173 366.354 2173.44 363.344 2174.31 360.656C2175.21 357.948 2176.48 355.646 2178.12 353.75C2179.79 351.854 2181.78 350.396 2184.09 349.375C2186.41 348.354 2188.99 347.844 2191.84 347.844C2195.64 347.844 2198.83 348.531 2201.44 349.906C2204.06 351.281 2206.09 353.177 2207.53 355.594C2208.99 358.01 2209.86 360.76 2210.16 363.844H2200.78C2200.68 362.01 2200.31 360.458 2199.69 359.188C2199.06 357.896 2198.11 356.927 2196.84 356.281C2195.59 355.615 2193.93 355.281 2191.84 355.281C2190.28 355.281 2188.92 355.573 2187.75 356.156C2186.58 356.74 2185.6 357.625 2184.81 358.812C2184.02 360 2183.43 361.5 2183.03 363.312C2182.66 365.104 2182.47 367.208 2182.47 369.625V372.844C2182.47 375.198 2182.65 377.271 2183 379.062C2183.35 380.833 2183.9 382.333 2184.62 383.562C2185.38 384.771 2186.33 385.688 2187.5 386.312C2188.69 386.917 2190.11 387.219 2191.78 387.219C2193.74 387.219 2195.35 386.906 2196.62 386.281C2197.9 385.656 2198.86 384.729 2199.53 383.5C2200.22 382.271 2200.62 380.74 2200.75 378.906Z" fill="black"/>
<path d="M2214.25 377.438V376.781C2214.25 374.302 2214.6 372.021 2215.31 369.938C2216.02 367.833 2217.05 366.01 2218.41 364.469C2219.76 362.927 2221.43 361.729 2223.41 360.875C2225.39 360 2227.66 359.562 2230.22 359.562C2232.78 359.562 2235.06 360 2237.06 360.875C2239.06 361.729 2240.74 362.927 2242.09 364.469C2243.47 366.01 2244.51 367.833 2245.22 369.938C2245.93 372.021 2246.28 374.302 2246.28 376.781V377.438C2246.28 379.896 2245.93 382.177 2245.22 384.281C2244.51 386.365 2243.47 388.188 2242.09 389.75C2240.74 391.292 2239.07 392.49 2237.09 393.344C2235.11 394.198 2232.84 394.625 2230.28 394.625C2227.72 394.625 2225.44 394.198 2223.44 393.344C2221.46 392.49 2219.78 391.292 2218.41 389.75C2217.05 388.188 2216.02 386.365 2215.31 384.281C2214.6 382.177 2214.25 379.896 2214.25 377.438ZM2223.25 376.781V377.438C2223.25 378.854 2223.38 380.177 2223.62 381.406C2223.88 382.635 2224.27 383.719 2224.81 384.656C2225.38 385.573 2226.1 386.292 2227 386.812C2227.9 387.333 2228.99 387.594 2230.28 387.594C2231.53 387.594 2232.6 387.333 2233.5 386.812C2234.4 386.292 2235.11 385.573 2235.66 384.656C2236.2 383.719 2236.59 382.635 2236.84 381.406C2237.11 380.177 2237.25 378.854 2237.25 377.438V376.781C2237.25 375.406 2237.11 374.115 2236.84 372.906C2236.59 371.677 2236.19 370.594 2235.62 369.656C2235.08 368.698 2234.36 367.948 2233.47 367.406C2232.57 366.865 2231.49 366.594 2230.22 366.594C2228.95 366.594 2227.86 366.865 2226.97 367.406C2226.09 367.948 2225.38 368.698 2224.81 369.656C2224.27 370.594 2223.88 371.677 2223.62 372.906C2223.38 374.115 2223.25 375.406 2223.25 376.781Z" fill="black"/>
<path d="M2250.38 377.438V376.781C2250.38 374.302 2250.73 372.021 2251.44 369.938C2252.15 367.833 2253.18 366.01 2254.53 364.469C2255.89 362.927 2257.55 361.729 2259.53 360.875C2261.51 360 2263.78 359.562 2266.34 359.562C2268.91 359.562 2271.19 360 2273.19 360.875C2275.19 361.729 2276.86 362.927 2278.22 364.469C2279.59 366.01 2280.64 367.833 2281.34 369.938C2282.05 372.021 2282.41 374.302 2282.41 376.781V377.438C2282.41 379.896 2282.05 382.177 2281.34 384.281C2280.64 386.365 2279.59 388.188 2278.22 389.75C2276.86 391.292 2275.2 392.49 2273.22 393.344C2271.24 394.198 2268.97 394.625 2266.41 394.625C2263.84 394.625 2261.56 394.198 2259.56 393.344C2257.58 392.49 2255.91 391.292 2254.53 389.75C2253.18 388.188 2252.15 386.365 2251.44 384.281C2250.73 382.177 2250.38 379.896 2250.38 377.438ZM2259.38 376.781V377.438C2259.38 378.854 2259.5 380.177 2259.75 381.406C2260 382.635 2260.4 383.719 2260.94 384.656C2261.5 385.573 2262.23 386.292 2263.12 386.812C2264.02 387.333 2265.11 387.594 2266.41 387.594C2267.66 387.594 2268.73 387.333 2269.62 386.812C2270.52 386.292 2271.24 385.573 2271.78 384.656C2272.32 383.719 2272.72 382.635 2272.97 381.406C2273.24 380.177 2273.38 378.854 2273.38 377.438V376.781C2273.38 375.406 2273.24 374.115 2272.97 372.906C2272.72 371.677 2272.31 370.594 2271.75 369.656C2271.21 368.698 2270.49 367.948 2269.59 367.406C2268.7 366.865 2267.61 366.594 2266.34 366.594C2265.07 366.594 2263.99 366.865 2263.09 367.406C2262.22 367.948 2261.5 368.698 2260.94 369.656C2260.4 370.594 2260 371.677 2259.75 372.906C2259.5 374.115 2259.38 375.406 2259.38 376.781Z" fill="black"/>
<path d="M2296.94 366.688V407H2287.94V360.188H2296.28L2296.94 366.688ZM2318.34 376.719V377.375C2318.34 379.833 2318.05 382.115 2317.47 384.219C2316.91 386.323 2316.07 388.156 2314.97 389.719C2313.86 391.26 2312.49 392.469 2310.84 393.344C2309.22 394.198 2307.34 394.625 2305.22 394.625C2303.16 394.625 2301.36 394.208 2299.84 393.375C2298.32 392.542 2297.04 391.375 2296 389.875C2294.98 388.354 2294.16 386.594 2293.53 384.594C2292.91 382.594 2292.43 380.448 2292.09 378.156V376.438C2292.43 373.979 2292.91 371.729 2293.53 369.688C2294.16 367.625 2294.98 365.844 2296 364.344C2297.04 362.823 2298.31 361.646 2299.81 360.812C2301.33 359.979 2303.11 359.562 2305.16 359.562C2307.3 359.562 2309.19 359.969 2310.81 360.781C2312.46 361.594 2313.83 362.76 2314.94 364.281C2316.06 365.802 2316.91 367.615 2317.47 369.719C2318.05 371.823 2318.34 374.156 2318.34 376.719ZM2309.31 377.375V376.719C2309.31 375.281 2309.19 373.958 2308.94 372.75C2308.71 371.521 2308.33 370.448 2307.81 369.531C2307.31 368.615 2306.65 367.906 2305.81 367.406C2305 366.885 2304.01 366.625 2302.84 366.625C2301.61 366.625 2300.56 366.823 2299.69 367.219C2298.83 367.615 2298.14 368.188 2297.59 368.938C2297.05 369.688 2296.65 370.583 2296.38 371.625C2296.1 372.667 2295.94 373.844 2295.88 375.156V379.5C2295.98 381.042 2296.27 382.427 2296.75 383.656C2297.23 384.865 2297.97 385.823 2298.97 386.531C2299.97 387.24 2301.28 387.594 2302.91 387.594C2304.09 387.594 2305.09 387.333 2305.91 386.812C2306.72 386.271 2307.38 385.531 2307.88 384.594C2308.4 383.656 2308.76 382.573 2308.97 381.344C2309.2 380.115 2309.31 378.792 2309.31 377.375Z" fill="black"/>
<path d="M2339.5 394.625C2336.88 394.625 2334.52 394.208 2332.44 393.375C2330.35 392.521 2328.58 391.344 2327.12 389.844C2325.69 388.344 2324.58 386.604 2323.81 384.625C2323.04 382.625 2322.66 380.5 2322.66 378.25V377C2322.66 374.438 2323.02 372.094 2323.75 369.969C2324.48 367.844 2325.52 366 2326.88 364.438C2328.25 362.875 2329.92 361.677 2331.88 360.844C2333.83 359.99 2336.04 359.562 2338.5 359.562C2340.9 359.562 2343.02 359.958 2344.88 360.75C2346.73 361.542 2348.28 362.667 2349.53 364.125C2350.8 365.583 2351.76 367.333 2352.41 369.375C2353.05 371.396 2353.38 373.646 2353.38 376.125V379.875H2326.5V373.875H2344.53V373.188C2344.53 371.938 2344.3 370.823 2343.84 369.844C2343.41 368.844 2342.74 368.052 2341.84 367.469C2340.95 366.885 2339.8 366.594 2338.41 366.594C2337.22 366.594 2336.2 366.854 2335.34 367.375C2334.49 367.896 2333.79 368.625 2333.25 369.562C2332.73 370.5 2332.33 371.604 2332.06 372.875C2331.81 374.125 2331.69 375.5 2331.69 377V378.25C2331.69 379.604 2331.88 380.854 2332.25 382C2332.65 383.146 2333.2 384.135 2333.91 384.969C2334.64 385.802 2335.51 386.448 2336.53 386.906C2337.57 387.365 2338.75 387.594 2340.06 387.594C2341.69 387.594 2343.2 387.281 2344.59 386.656C2346.01 386.01 2347.23 385.042 2348.25 383.75L2352.62 388.5C2351.92 389.521 2350.95 390.5 2349.72 391.438C2348.51 392.375 2347.05 393.146 2345.34 393.75C2343.64 394.333 2341.69 394.625 2339.5 394.625Z" fill="black"/>
<path d="M2367.5 367.562V394H2358.5V360.188H2366.97L2367.5 367.562ZM2377.69 359.969L2377.53 368.312C2377.09 368.25 2376.56 368.198 2375.94 368.156C2375.33 368.094 2374.78 368.062 2374.28 368.062C2373.01 368.062 2371.91 368.229 2370.97 368.562C2370.05 368.875 2369.28 369.344 2368.66 369.969C2368.05 370.594 2367.59 371.354 2367.28 372.25C2366.99 373.146 2366.82 374.167 2366.78 375.312L2364.97 374.75C2364.97 372.562 2365.19 370.552 2365.62 368.719C2366.06 366.865 2366.7 365.25 2367.53 363.875C2368.39 362.5 2369.43 361.438 2370.66 360.688C2371.89 359.938 2373.29 359.562 2374.88 359.562C2375.38 359.562 2375.89 359.604 2376.41 359.688C2376.93 359.75 2377.35 359.844 2377.69 359.969Z" fill="black"/>
<path d="M2399.12 386.375V371.312C2399.12 370.229 2398.95 369.302 2398.59 368.531C2398.24 367.74 2397.69 367.125 2396.94 366.688C2396.21 366.25 2395.26 366.031 2394.09 366.031C2393.09 366.031 2392.23 366.208 2391.5 366.562C2390.77 366.896 2390.21 367.385 2389.81 368.031C2389.42 368.656 2389.22 369.396 2389.22 370.25H2380.22C2380.22 368.812 2380.55 367.448 2381.22 366.156C2381.89 364.865 2382.85 363.729 2384.12 362.75C2385.4 361.75 2386.91 360.969 2388.66 360.406C2390.43 359.844 2392.41 359.562 2394.59 359.562C2397.22 359.562 2399.55 360 2401.59 360.875C2403.64 361.75 2405.24 363.062 2406.41 364.812C2407.59 366.562 2408.19 368.75 2408.19 371.375V385.844C2408.19 387.698 2408.3 389.219 2408.53 390.406C2408.76 391.573 2409.09 392.594 2409.53 393.469V394H2400.44C2400 393.083 2399.67 391.938 2399.44 390.562C2399.23 389.167 2399.12 387.771 2399.12 386.375ZM2400.31 373.406L2400.38 378.5H2395.34C2394.16 378.5 2393.12 378.635 2392.25 378.906C2391.38 379.177 2390.66 379.562 2390.09 380.062C2389.53 380.542 2389.11 381.104 2388.84 381.75C2388.59 382.396 2388.47 383.104 2388.47 383.875C2388.47 384.646 2388.65 385.344 2389 385.969C2389.35 386.573 2389.86 387.052 2390.53 387.406C2391.2 387.74 2391.98 387.906 2392.88 387.906C2394.23 387.906 2395.41 387.635 2396.41 387.094C2397.41 386.552 2398.18 385.885 2398.72 385.094C2399.28 384.302 2399.57 383.552 2399.59 382.844L2401.97 386.656C2401.64 387.51 2401.18 388.396 2400.59 389.312C2400.03 390.229 2399.31 391.094 2398.44 391.906C2397.56 392.698 2396.51 393.354 2395.28 393.875C2394.05 394.375 2392.59 394.625 2390.91 394.625C2388.76 394.625 2386.81 394.198 2385.06 393.344C2383.33 392.469 2381.96 391.271 2380.94 389.75C2379.94 388.208 2379.44 386.458 2379.44 384.5C2379.44 382.729 2379.77 381.156 2380.44 379.781C2381.1 378.406 2382.08 377.25 2383.38 376.312C2384.69 375.354 2386.32 374.635 2388.28 374.156C2390.24 373.656 2392.51 373.406 2395.09 373.406H2400.31Z" fill="black"/>
<path d="M2431.69 360.188V366.562H2412V360.188H2431.69ZM2416.88 351.844H2425.88V383.812C2425.88 384.792 2426 385.542 2426.25 386.062C2426.52 386.583 2426.92 386.948 2427.44 387.156C2427.96 387.344 2428.61 387.438 2429.41 387.438C2429.97 387.438 2430.47 387.417 2430.91 387.375C2431.36 387.312 2431.75 387.25 2432.06 387.188L2432.09 393.812C2431.32 394.062 2430.49 394.26 2429.59 394.406C2428.7 394.552 2427.71 394.625 2426.62 394.625C2424.65 394.625 2422.92 394.302 2421.44 393.656C2419.98 392.99 2418.85 391.927 2418.06 390.469C2417.27 389.01 2416.88 387.094 2416.88 384.719V351.844Z" fill="black"/>
<path d="M2446.31 360.188V394H2437.28V360.188H2446.31ZM2436.72 351.375C2436.72 350.062 2437.18 348.979 2438.09 348.125C2439.01 347.271 2440.24 346.844 2441.78 346.844C2443.3 346.844 2444.52 347.271 2445.44 348.125C2446.38 348.979 2446.84 350.062 2446.84 351.375C2446.84 352.688 2446.38 353.771 2445.44 354.625C2444.52 355.479 2443.3 355.906 2441.78 355.906C2440.24 355.906 2439.01 355.479 2438.09 354.625C2437.18 353.771 2436.72 352.688 2436.72 351.375Z" fill="black"/>
<path d="M2465.25 387.438L2472.75 360.188H2482.16L2470.75 394H2465.06L2465.25 387.438ZM2460.09 360.188L2467.62 387.469L2467.78 394H2462.06L2450.66 360.188H2460.09Z" fill="black"/>
<path d="M2501.31 394.625C2498.69 394.625 2496.33 394.208 2494.25 393.375C2492.17 392.521 2490.4 391.344 2488.94 389.844C2487.5 388.344 2486.4 386.604 2485.62 384.625C2484.85 382.625 2484.47 380.5 2484.47 378.25V377C2484.47 374.438 2484.83 372.094 2485.56 369.969C2486.29 367.844 2487.33 366 2488.69 364.438C2490.06 362.875 2491.73 361.677 2493.69 360.844C2495.65 359.99 2497.85 359.562 2500.31 359.562C2502.71 359.562 2504.83 359.958 2506.69 360.75C2508.54 361.542 2510.09 362.667 2511.34 364.125C2512.61 365.583 2513.57 367.333 2514.22 369.375C2514.86 371.396 2515.19 373.646 2515.19 376.125V379.875H2488.31V373.875H2506.34V373.188C2506.34 371.938 2506.11 370.823 2505.66 369.844C2505.22 368.844 2504.55 368.052 2503.66 367.469C2502.76 366.885 2501.61 366.594 2500.22 366.594C2499.03 366.594 2498.01 366.854 2497.16 367.375C2496.3 367.896 2495.6 368.625 2495.06 369.562C2494.54 370.5 2494.15 371.604 2493.88 372.875C2493.62 374.125 2493.5 375.5 2493.5 377V378.25C2493.5 379.604 2493.69 380.854 2494.06 382C2494.46 383.146 2495.01 384.135 2495.72 384.969C2496.45 385.802 2497.32 386.448 2498.34 386.906C2499.39 387.365 2500.56 387.594 2501.88 387.594C2503.5 387.594 2505.01 387.281 2506.41 386.656C2507.82 386.01 2509.04 385.042 2510.06 383.75L2514.44 388.5C2513.73 389.521 2512.76 390.5 2511.53 391.438C2510.32 392.375 2508.86 393.146 2507.16 393.75C2505.45 394.333 2503.5 394.625 2501.31 394.625Z" fill="black"/>
<path d="M352 115C352 115 352 115 198 115C44 115 44 115 44 115C44 51.4873 112.948 0 198 0C283.052 0 352 51.4873 352 115Z" fill="black"/>
<path d="M192.216 135.982C193.835 130.108 202.165 130.108 203.784 135.982L216.113 180.703C216.857 183.403 219.37 185.229 222.168 185.102L268.51 183.008C274.597 182.733 277.171 190.655 272.085 194.01L233.362 219.555C231.024 221.097 230.065 224.052 231.049 226.673L247.362 270.1C249.504 275.804 242.765 280.7 238.003 276.9L201.742 247.966C199.553 246.219 196.447 246.219 194.258 247.966L157.997 276.9C153.235 280.7 146.496 275.804 148.638 270.1L164.951 226.673C165.935 224.052 164.976 221.097 162.638 219.555L123.915 194.01C118.829 190.655 121.403 182.733 127.49 183.008L173.832 185.102C176.63 185.229 179.143 183.403 179.887 180.703L192.216 135.982Z" fill="black"/>
<path d="M9.12307 324.254L32.2222 195.79C33.7996 187.018 45.3317 184.497 50.6991 191.613C110.681 271.133 149.565 283.969 113.501 378.137C112.042 381.947 108.327 384.5 104.247 384.5H87.1909C85.1152 384.5 83.0909 383.854 81.3988 382.652L13.1732 334.176C10.0155 331.932 8.43755 328.067 9.12307 324.254Z" fill="black"/>
<path d="M390.262 324.254L367.163 195.79C365.585 187.018 354.053 184.497 348.686 191.613C288.704 271.133 249.82 283.969 285.884 378.137C287.343 381.947 291.057 384.5 295.138 384.5H312.194C314.27 384.5 316.294 383.854 317.986 382.652L386.212 334.176C389.369 331.932 390.947 328.067 390.262 324.254Z" fill="black"/>
<path d="M0 151C0 145.477 4.47715 141 10 141H25V203H10C4.47715 203 0 198.523 0 193V151Z" fill="black"/>
<path d="M14 26C8.47715 26 4 21.5228 4 16V11C4 5.47715 8.47715 1 14 1H56C61.5228 1 66 5.47715 66 11V16C66 21.5228 61.5228 26 56 26H14Z" fill="black"/>
</svg>
